<svg version="1.1" id="Layer_1" xmlns="http://www.w3.org/2000/svg" x="0px" y="0px" viewBox="91.882 1914 14.118 14.174" xml:space="preserve" fill="#FFF" width="15px" data-testid="FacebookIcon" class="sc-bBeLUv gYhEjH"><title>Facebook Icon</title><path fill="#FFF" d="M104.734,1914H93.147c-0.43,0-1.265,0.838-1.265,1.271v11.631c0,0.432,0.835,1.271,1.265,1.271h6.034v-5.381                                    h-1.945v-1.945h1.945v-1.495c0-1.832,1.38-2.918,3.007-2.918c0.779,0,1.189,0.084,1.385,0.11v1.854h-1.38                                    c-0.885,0-1.05,0.439-1.05,1.06v1.391h2.456l-0.32,1.945h-2.136v5.381h3.591c0.431,0,1.266-0.839,1.266-1.271v-11.631                                    C106,1914.838,105.165,1914,104.734,1914z"></path></svg>