<svg version="1.1" id="Layer_1" xmlns="http://www.w3.org/2000/svg" x="0px" y="0px" viewBox="0 0 19.74 24.56" xml:space="preserve" fill="#FFF" width="15px" data-testid="InstagramIcon" class="sc-bBeLUv gYhEjH"><title>Instagram Icon</title><path fill="#FFF" d="M10,1.8c2.7,0,3,0,4,0.1c1,0,1.5,0.2,1.9,0.3C16.4,2.4,16.7,2.6,17,3c0.3,0.3,0.6,0.7,0.7,1.1                                C17.9,4.5,18.1,5,18.1,6c0,1.1,0.1,1.4,0.1,4s0,3-0.1,4c0,1-0.2,1.5-0.3,1.9c-0.2,0.5-0.4,0.8-0.7,1.1c-0.3,0.3-0.7,0.6-1.1,0.7                                c-0.4,0.1-0.9,0.3-1.9,0.3c-1.1,0-1.4,0.1-4,0.1s-3,0-4-0.1c-1,0-1.5-0.2-1.9-0.3C3.6,17.6,3.3,17.4,3,17c-0.3-0.3-0.6-0.7-0.7-1.1                                C2.1,15.5,1.9,15,1.9,14c0-1.1-0.1-1.4-0.1-4s0-3,0.1-4c0-1,0.2-1.5,0.3-1.9C2.4,3.6,2.6,3.3,3,3c0.3-0.3,0.7-0.6,1.1-0.7                                C4.5,2.1,5,1.9,6,1.9C7,1.8,7.3,1.8,10,1.8 M10,0C7.3,0,6.9,0,5.9,0.1c-1.1,0-1.8,0.2-2.4,0.5C2.8,0.8,2.2,1.1,1.7,1.7                                C1.1,2.2,0.8,2.8,0.5,3.4C0.3,4.1,0.1,4.8,0.1,5.9C0,6.9,0,7.3,0,10c0,2.7,0,3.1,0.1,4.1c0,1.1,0.2,1.8,0.5,2.4                                c0.3,0.7,0.6,1.2,1.2,1.8c0.6,0.6,1.1,0.9,1.8,1.2c0.6,0.2,1.4,0.4,2.4,0.5C6.9,20,7.3,20,10,20s3.1,0,4.1-0.1                                c1.1,0,1.8-0.2,2.4-0.5c0.7-0.3,1.2-0.6,1.8-1.2c0.6-0.6,0.9-1.1,1.2-1.8c0.2-0.6,0.4-1.4,0.5-2.4c0-1.1,0.1-1.4,0.1-4.1                                s0-3.1-0.1-4.1c0-1.1-0.2-1.8-0.5-2.4c-0.3-0.7-0.6-1.2-1.2-1.8c-0.6-0.6-1.1-0.9-1.8-1.2c-0.6-0.2-1.4-0.4-2.4-0.5                                C13.1,0,12.7,0,10,0L10,0z"></path><path fill="#FFF" d="M10,4.9c-2.8,0-5.1,2.3-5.1,5.1s2.3,5.1,5.1,5.1s5.1-2.3,5.1-5.1S12.8,4.9,10,4.9z M10,13.3                                c-1.8,0-3.3-1.5-3.3-3.3S8.2,6.7,10,6.7s3.3,1.5,3.3,3.3S11.8,13.3,10,13.3z"></path><circle fill="#FFF" cx="15.3" cy="4.7" r="1.2"></circle></svg>